<?xml version="1.0" encoding="UTF-8" standalone="no"?>
<!-- Created with Inkscape (http://www.inkscape.org/) -->

<svg
   width="210mm"
   height="297mm"
   viewBox="0 0 210 297"
   version="1.1"
   id="svg5"
   xml:space="preserve"
   inkscape:version="1.2.2 (732a01da63, 2022-12-09)"
   sodipodi:docname="echantillonnage.svg"
   xmlns:inkscape="http://www.inkscape.org/namespaces/inkscape"
   xmlns:sodipodi="http://sodipodi.sourceforge.net/DTD/sodipodi-0.dtd"
   xmlns="http://www.w3.org/2000/svg"
   xmlns:svg="http://www.w3.org/2000/svg"><sodipodi:namedview
     id="namedview7"
     pagecolor="#ffffff"
     bordercolor="#000000"
     borderopacity="0.25"
     inkscape:showpageshadow="2"
     inkscape:pageopacity="0.0"
     inkscape:pagecheckerboard="0"
     inkscape:deskcolor="#d1d1d1"
     inkscape:document-units="mm"
     showgrid="false"
     inkscape:zoom="0.74564394"
     inkscape:cx="334.61011"
     inkscape:cy="561.9304"
     inkscape:window-width="1920"
     inkscape:window-height="1017"
     inkscape:window-x="-8"
     inkscape:window-y="-8"
     inkscape:window-maximized="1"
     inkscape:current-layer="layer1" /><defs
     id="defs2" /><g
     inkscape:label="Calque 1"
     inkscape:groupmode="layer"
     id="layer1"><path
       style="fill:#b5b5b5;stroke-width:0.264583;fill-opacity:1"
       d="m 54.079684,130.18413 c -0.05635,-0.1845 -0.300265,-4.32404 -0.542029,-9.19899 -0.241764,-4.87495 -0.520158,-8.9346 -0.618652,-9.02144 -0.0985,-0.0868 -1.161348,-0.54672 -2.361895,-1.02193 l -2.182812,-0.86402 v -6.79384 c 0,-5.250202 0.09215,-7.147642 0.405582,-8.350982 0.93779,-3.60042 3.261126,-6.39725 6.663997,-8.02212 2.006073,-0.95791 2.136104,-0.98296 5.101254,-0.98296 2.965149,0 3.095179,0.0251 5.101249,0.98296 3.40287,1.62487 5.72621,4.4217 6.664,8.02212 0.31345,1.2034 0.40558,3.10098 0.40558,8.353012 v 6.79587 l -2.3151,0.92469 c -2.30827,0.92196 -2.31537,0.9277 -2.40432,1.94594 -0.0491,0.56168 -0.28719,4.71218 -0.52917,9.22333 l -0.43995,8.20208 -6.422636,0.0709 c -5.005285,0.0552 -6.44525,-0.003 -6.525098,-0.26458 z m 3.68732,-47.802432 c -1.339478,-0.62246 -2.888532,-2.23125 -3.453123,-3.58628 -0.239939,-0.57586 -0.436252,-1.71205 -0.436252,-2.52486 0,-2.62608 1.225831,-4.69323 3.52683,-5.94738 3.517865,-1.9174 7.794469,-0.34992 9.376649,3.43676 0.55468,1.32754 0.55246,3.69822 -0.005,5.03548 -0.56459,1.35503 -2.11365,2.96382 -3.45313,3.58628 -1.420904,0.66031 -4.13534,0.66031 -5.556247,0 z"
       id="path248" /><path
       style="fill:#ffa1ff;fill-opacity:1;stroke-width:0.264583"
       d="m 106.72811,166.81145 c -0.0564,-0.1845 -0.30027,-4.32404 -0.54203,-9.19899 -0.24176,-4.87495 -0.52016,-8.9346 -0.61865,-9.02144 -0.0985,-0.0868 -1.16135,-0.54672 -2.3619,-1.02193 l -2.18281,-0.86402 v -6.79384 c 0,-5.2502 0.0922,-7.14764 0.40558,-8.35098 0.93779,-3.60042 3.26113,-6.39725 6.664,-8.02212 2.00607,-0.95791 2.1361,-0.98296 5.10125,-0.98296 2.96515,0 3.09518,0.0251 5.10125,0.98296 3.40287,1.62487 5.72621,4.4217 6.664,8.02212 0.31345,1.2034 0.40558,3.10098 0.40558,8.35301 v 6.79587 l -2.3151,0.92469 c -2.30827,0.92196 -2.31537,0.9277 -2.40432,1.94594 -0.0491,0.56168 -0.28719,4.71218 -0.52917,9.22333 l -0.43995,8.20208 -6.42263,0.0709 c -5.00529,0.0552 -6.44525,-0.003 -6.5251,-0.26458 z m 3.68732,-47.80243 c -1.33948,-0.62246 -2.88853,-2.23125 -3.45312,-3.58628 -0.23994,-0.57586 -0.43626,-1.71205 -0.43626,-2.52486 0,-2.62608 1.22583,-4.69323 3.52683,-5.94738 3.51787,-1.9174 7.79447,-0.34992 9.37665,3.43676 0.55468,1.32754 0.55246,3.69822 -0.005,5.03548 -0.56459,1.35503 -2.11365,2.96382 -3.45313,3.58628 -1.4209,0.66031 -4.13534,0.66031 -5.55624,0 z"
       id="path248-7" /><path
       style="fill:#00ffca;fill-opacity:1;stroke-width:0.264583"
       d="m 68.760371,203.005 c -0.0564,-0.1845 -0.30027,-4.32404 -0.54203,-9.19899 -0.24176,-4.87495 -0.52016,-8.9346 -0.61865,-9.02144 -0.0985,-0.0868 -1.16135,-0.54672 -2.3619,-1.02193 l -2.18281,-0.86402 v -6.79384 c 0,-5.2502 0.0922,-7.14764 0.40558,-8.35098 0.93779,-3.60042 3.26113,-6.39725 6.664,-8.02212 2.00607,-0.95791 2.1361,-0.98296 5.10125,-0.98296 2.96515,0 3.09518,0.0251 5.10125,0.98296 3.40287,1.62487 5.72621,4.4217 6.664,8.02212 0.31345,1.2034 0.40558,3.10098 0.40558,8.35301 v 6.79587 l -2.3151,0.92469 c -2.30827,0.92196 -2.31537,0.9277 -2.40432,1.94594 -0.0491,0.56168 -0.28719,4.71218 -0.52917,9.22333 l -0.43995,8.20208 -6.42263,0.0709 c -5.00529,0.0552 -6.44525,-0.003 -6.5251,-0.26458 z m 3.68732,-47.80243 c -1.33948,-0.62246 -2.88853,-2.23125 -3.45312,-3.58628 -0.23994,-0.57586 -0.43626,-1.71205 -0.43626,-2.52486 0,-2.62608 1.22583,-4.69323 3.52683,-5.94738 3.51787,-1.9174 7.79447,-0.34992 9.37665,3.43676 0.55468,1.32754 0.55246,3.69822 -0.005,5.03548 -0.56459,1.35503 -2.11365,2.96382 -3.45313,3.58628 -1.4209,0.66031 -4.13534,0.66031 -5.55624,0 z"
       id="path248-7-4" /><path
       style="fill:#ff44a2;fill-opacity:1;stroke-width:0.264583"
       d="m 34.341012,238.13403 c -0.0564,-0.1845 -0.30027,-4.32404 -0.54203,-9.19899 -0.24176,-4.87495 -0.52016,-8.9346 -0.61865,-9.02144 -0.0985,-0.0868 -1.16135,-0.54672 -2.3619,-1.02193 l -2.182811,-0.86402 v -6.79384 c 0,-5.2502 0.0922,-7.14764 0.40558,-8.35098 0.937791,-3.60042 3.26113,-6.39725 6.664001,-8.02212 2.006069,-0.95791 2.1361,-0.98296 5.101249,-0.98296 2.96515,0 3.09518,0.0251 5.10125,0.98296 3.40287,1.62487 5.72621,4.4217 6.664,8.02212 0.31345,1.2034 0.40558,3.10098 0.40558,8.35301 v 6.79587 l -2.3151,0.92469 c -2.30827,0.92196 -2.31537,0.9277 -2.40432,1.94594 -0.0491,0.56168 -0.28719,4.71218 -0.52917,9.22333 l -0.439949,8.20208 -6.42263,0.0709 c -5.00529,0.0552 -6.44525,-0.003 -6.5251,-0.26458 z m 3.68732,-47.80243 c -1.33948,-0.62246 -2.88853,-2.23125 -3.45312,-3.58628 -0.23994,-0.57586 -0.43626,-1.71205 -0.43626,-2.52486 0,-2.62608 1.22583,-4.69323 3.52683,-5.94738 3.51787,-1.9174 7.79447,-0.34992 9.37665,3.43676 0.55468,1.32754 0.55246,3.69822 -0.005,5.03548 -0.56459,1.35503 -2.11365,2.96382 -3.45313,3.58628 -1.4209,0.66031 -4.13534,0.66031 -5.55624,0 z"
       id="path248-7-4-9" /><path
       style="fill:#98ff3b;fill-opacity:1;stroke-width:0.264583"
       d="m 89.695851,262.97274 c -0.0564,-0.1845 -0.30027,-4.32404 -0.54203,-9.19899 -0.24176,-4.87495 -0.52016,-8.9346 -0.61865,-9.02144 -0.0985,-0.0868 -1.16135,-0.54672 -2.3619,-1.02193 l -2.182811,-0.86402 v -6.79384 c 0,-5.2502 0.0922,-7.14764 0.40558,-8.35098 0.937791,-3.60042 3.26113,-6.39725 6.664001,-8.02212 2.006069,-0.95791 2.1361,-0.98296 5.101249,-0.98296 2.96515,0 3.09518,0.0251 5.10125,0.98296 3.40287,1.62487 5.72621,4.4217 6.664,8.02212 0.31345,1.2034 0.40558,3.10098 0.40558,8.35301 v 6.79587 l -2.3151,0.92469 c -2.30827,0.92196 -2.31537,0.9277 -2.40432,1.94594 -0.0491,0.56168 -0.28719,4.71218 -0.52917,9.22333 l -0.43995,8.20208 -6.422629,0.0709 c -5.00529,0.0552 -6.44525,-0.003 -6.5251,-0.26458 z m 3.68732,-47.80243 c -1.33948,-0.62246 -2.88853,-2.23125 -3.45312,-3.58628 -0.23994,-0.57586 -0.43626,-1.71205 -0.43626,-2.52486 0,-2.62608 1.22583,-4.69323 3.52683,-5.94738 3.51787,-1.9174 7.794469,-0.34992 9.376649,3.43676 0.55468,1.32754 0.55246,3.69822 -0.005,5.03548 -0.56459,1.35503 -2.11365,2.96382 -3.453129,3.58628 -1.4209,0.66031 -4.13534,0.66031 -5.55624,0 z"
       id="path248-7-4-9-9" /><path
       style="fill:#00eaff;fill-opacity:1;stroke-width:0.264583"
       d="m 130.5023,231.03725 c -0.0564,-0.1845 -0.30027,-4.32404 -0.54203,-9.19899 -0.24176,-4.87495 -0.52016,-8.9346 -0.61865,-9.02144 -0.0985,-0.0868 -1.16135,-0.54672 -2.3619,-1.02193 l -2.18281,-0.86402 v -6.79384 c 0,-5.2502 0.0922,-7.14764 0.40558,-8.35098 0.93779,-3.60042 3.26113,-6.39725 6.664,-8.02212 2.00607,-0.95791 2.1361,-0.98296 5.10125,-0.98296 2.96515,0 3.09518,0.0251 5.10125,0.98296 3.40287,1.62487 5.72621,4.4217 6.664,8.02212 0.31345,1.2034 0.40558,3.10098 0.40558,8.35301 v 6.79587 l -2.3151,0.92469 c -2.30827,0.92196 -2.31537,0.9277 -2.40432,1.94594 -0.0491,0.56168 -0.28719,4.71218 -0.52917,9.22333 l -0.43995,8.20208 -6.42263,0.0709 c -5.00529,0.0552 -6.44525,-0.003 -6.5251,-0.26458 z m 3.68732,-47.80243 c -1.33948,-0.62246 -2.88853,-2.23125 -3.45312,-3.58628 -0.23994,-0.57586 -0.43626,-1.71205 -0.43626,-2.52486 0,-2.62608 1.22583,-4.69323 3.52683,-5.94738 3.51787,-1.9174 7.79447,-0.34992 9.37665,3.43676 0.55468,1.32754 0.55246,3.69822 -0.005,5.03548 -0.56459,1.35503 -2.11365,2.96382 -3.45313,3.58628 -1.4209,0.66031 -4.13534,0.66031 -5.55624,0 z"
       id="path248-7-4-0" /><path
       style="fill:#c3bd00;fill-opacity:1;stroke-width:0.264583"
       d="m 170.59908,201.2308 c -0.0564,-0.1845 -0.30027,-4.32404 -0.54203,-9.19899 -0.24176,-4.87495 -0.52016,-8.9346 -0.61865,-9.02144 -0.0985,-0.0868 -1.16135,-0.54672 -2.3619,-1.02193 l -2.18281,-0.86402 v -6.79384 c 0,-5.2502 0.0922,-7.14764 0.40558,-8.35098 0.93779,-3.60042 3.26113,-6.39725 6.664,-8.02212 2.00607,-0.95791 2.1361,-0.98296 5.10125,-0.98296 2.96515,0 3.09518,0.0251 5.10125,0.98296 3.40287,1.62487 5.72621,4.4217 6.664,8.02212 0.31345,1.2034 0.40558,3.10098 0.40558,8.35301 v 6.79587 l -2.3151,0.92469 c -2.30827,0.92196 -2.31537,0.9277 -2.40432,1.94594 -0.0491,0.56168 -0.28719,4.71218 -0.52917,9.22333 l -0.43995,8.20208 -6.42263,0.0709 c -5.00529,0.0552 -6.44525,-0.003 -6.5251,-0.26458 z m 3.68732,-47.80243 c -1.33948,-0.62246 -2.88853,-2.23125 -3.45312,-3.58628 -0.23994,-0.57586 -0.43626,-1.71205 -0.43626,-2.52486 0,-2.62608 1.22583,-4.69323 3.52683,-5.94738 3.51787,-1.9174 7.79447,-0.34992 9.37665,3.43676 0.55468,1.32754 0.55246,3.69822 -0.005,5.03548 -0.56459,1.35503 -2.11365,2.96382 -3.45313,3.58628 -1.4209,0.66031 -4.13534,0.66031 -5.55624,0 z"
       id="path248-7-4-0-6" /><path
       style="fill:#ff865e;fill-opacity:1;stroke-width:0.264583"
       d="m 104.95391,106.13402 c -0.0564,-0.1845 -0.30027,-4.32404 -0.54203,-9.198986 -0.24176,-4.87495 -0.52016,-8.9346 -0.61865,-9.02144 -0.0985,-0.0868 -1.16135,-0.54672 -2.3619,-1.02193 l -2.182807,-0.86402 v -6.79384 c 0,-5.2502 0.0922,-7.14764 0.40558,-8.35098 0.937787,-3.60042 3.261127,-6.39725 6.663997,-8.02212 2.00607,-0.95791 2.1361,-0.98296 5.10125,-0.98296 2.96515,0 3.09518,0.0251 5.10125,0.98296 3.40287,1.62487 5.72621,4.4217 6.664,8.02212 0.31345,1.2034 0.40558,3.10098 0.40558,8.35301 v 6.79587 l -2.3151,0.92469 c -2.30827,0.92196 -2.31537,0.9277 -2.40432,1.94594 -0.0491,0.56168 -0.28719,4.71218 -0.52917,9.22333 l -0.43995,8.202076 -6.42263,0.0709 c -5.00529,0.0552 -6.44525,-0.003 -6.5251,-0.26458 z m 3.68732,-47.802426 c -1.33948,-0.62246 -2.88853,-2.23125 -3.45312,-3.58628 -0.23994,-0.57586 -0.43626,-1.71205 -0.43626,-2.52486 0,-2.62608 1.22583,-4.69323 3.52683,-5.94738 3.51787,-1.9174 7.79447,-0.34992 9.37665,3.43676 0.55468,1.32754 0.55246,3.69822 -0.005,5.03548 -0.56459,1.35503 -2.11365,2.96382 -3.45313,3.58628 -1.4209,0.66031 -4.13534,0.66031 -5.55624,0 z"
       id="path248-7-4-0-6-0" /><path
       style="fill:#000000;stroke-width:0.264583"
       d="m 139.37327,129.55338 c -0.0563,-0.1845 -0.30027,-4.32404 -0.54203,-9.19899 -0.24177,-4.87495 -0.52016,-8.9346 -0.61865,-9.02144 -0.0985,-0.0868 -1.16135,-0.54672 -2.3619,-1.02193 l -2.18281,-0.86402 v -6.79384 c 0,-5.250197 0.0922,-7.147637 0.40558,-8.350977 0.93779,-3.60042 3.26113,-6.39725 6.664,-8.02212 2.00607,-0.95791 2.1361,-0.98296 5.10125,-0.98296 2.96515,0 3.09518,0.0251 5.10125,0.98296 3.40287,1.62487 5.72621,4.4217 6.664,8.02212 0.31345,1.2034 0.40558,3.10098 0.40558,8.353007 v 6.79587 l -2.3151,0.92469 c -2.30827,0.92196 -2.31537,0.9277 -2.40432,1.94594 -0.0491,0.56168 -0.28719,4.71218 -0.52917,9.22333 l -0.43995,8.20208 -6.42264,0.0709 c -5.00528,0.0552 -6.44525,-0.003 -6.52509,-0.26458 z m 3.68732,-47.802427 c -1.33948,-0.62246 -2.88854,-2.23125 -3.45313,-3.58628 -0.23994,-0.57586 -0.43625,-1.71205 -0.43625,-2.52486 0,-2.62608 1.22583,-4.69323 3.52683,-5.94738 3.51787,-1.9174 7.79447,-0.34992 9.37665,3.43676 0.55468,1.32754 0.55246,3.69822 -0.005,5.03548 -0.56459,1.35503 -2.11365,2.96382 -3.45313,3.58628 -1.4209,0.66031 -4.13534,0.66031 -5.55625,0 z"
       id="path248-5" /></g></svg>
